<svg xmlns="http://www.w3.org/2000/svg" xmlns:xlink="http://www.w3.org/1999/xlink" width="175.7159881591797" height="33.19200134277344" viewBox="0 0 175.7159881591797 33.19200134277344" fill="none">
<g >
<path     fill="#000000"  d="M11.988 28.224L15.48 28.224L15.48 19.332L1.764 19.332L1.764 14.832L4.032 14.832L7.2 7.45201L1.368 7.45201L1.368 2.88L9.18 2.88L10.404 3.8147e-06L15.768 3.8147e-06L14.544 2.88L32.256 2.88L32.256 7.45201L12.564 7.45201L9.396 14.832L15.48 14.832L15.48 9.54L20.16 9.54L20.16 14.832L31.14 14.832L31.14 19.332L20.16 19.332L20.16 32.832L11.988 32.832L11.988 28.224ZM-3.57628e-06 31.968Q3.132 26.46 4.752 21.456L9.756 21.456Q8.1 26.784 5.436 31.968L-3.57628e-06 31.968ZM28.872 21.456Q30.492 26.46 33.624 31.968L28.188 31.968Q25.524 26.784 23.868 21.456L28.872 21.456ZM69.084 33.192Q62.712 31.176 58.842 27.99Q54.972 24.804 52.848 20.052Q50.688 24.804 46.818 27.99Q42.948 31.176 36.576 33.192L36.576 28.044Q40.464 26.46 43.038 24.588Q45.612 22.716 47.394 19.944Q49.176 17.172 50.436 12.96L36.612 12.96L36.612 8.28001L50.472 8.28001L50.436 0.0720062L55.188 0.0720062L55.188 8.28001L69.012 8.28001L69.012 12.96L55.224 12.96Q56.484 17.172 58.266 19.944Q60.048 22.716 62.622 24.588Q65.196 26.46 69.084 28.044L69.084 33.192ZM91.764 14.724L91.764 20.628L85.86 20.628L85.86 14.724L91.764 14.724ZM134.424 28.152L135.54 28.152L135.54 5.79601L120.96 5.79601L120.96 1.224L140.148 1.224L140.112 32.832L134.424 32.832L134.424 28.152ZM109.512 8.064L114.084 8.064L114.084 32.832L109.512 32.832L109.512 8.064ZM116.532 0.432005L119.556 7.12801L114.444 7.12801L111.42 0.432005L116.532 0.432005ZM115.2 30.06Q116.892 23.868 117.36 16.416L121.176 16.416Q120.708 24.264 119.232 30.06L115.2 30.06ZM115.992 10.188L122.58 10.188L122.58 7.63201L127.044 7.63201L127.044 10.188L133.632 10.188L133.632 14.652L127.044 14.652L127.044 31.428L122.58 31.428L122.58 14.652L115.992 14.652L115.992 10.188ZM132.264 16.416Q132.732 23.868 134.424 30.06L130.392 30.06Q128.916 24.264 128.448 16.416L132.264 16.416ZM175.14 32.832L166.824 32.832L166.824 28.224L170.568 28.224L170.856 20.484L168.408 20.484Q165.024 27.756 161.532 32.472L155.664 32.472Q157.428 30.024 159.426 26.838Q161.424 23.652 163.08 20.484L159.516 20.484Q158.148 23.076 156.168 26.154Q154.188 29.232 151.74 32.148L145.692 32.148Q147.888 29.628 150.21 26.514Q152.532 23.4 154.296 20.484L151.344 20.484Q150.66 21.636 149.652 22.896L143.928 22.896Q145.332 21.204 146.79 18.99Q148.248 16.776 149.256 14.58L147.816 14.58L147.816 0.756008L173.808 0.756008L173.808 14.58L154.368 14.58L153.756 15.948L175.716 15.948L175.14 32.832ZM169.164 10.908L169.164 9.46801L152.46 9.46801L152.46 10.908L169.164 10.908ZM169.164 5.90401L169.164 4.46401L152.46 4.46401L152.46 5.90401L169.164 5.90401Z">
</path>
</g>
</svg>
